<?xml version="1.0" encoding="utf-8"?>
<!-- Generator: Adobe Illustrator 22.0.1, SVG Export Plug-In . SVG Version: 6.00 Build 0)  -->
<svg version="1.1" id="Layer_1" xmlns="http://www.w3.org/2000/svg" xmlns:xlink="http://www.w3.org/1999/xlink" x="0px" y="0px"
	 viewBox="0 0 841.89 595.276" style="enable-background:new 0 0 841.89 595.276;" xml:space="preserve">
<g>
	<path d="M463.294,85.222c30.63,56.844,23.44,129.195-22.949,179.126c-58.302,62.755-156.438,66.364-219.193,8.062
		c-62.746-58.294-66.355-156.43-8.053-219.184C258.18,4.702,327.099-8.461,385.042,15.043l-24.294,26.149
		c-42.97-12.402-91.189-0.716-123.702,34.281c-46.015,49.529-43.158,126.974,6.362,172.981
		c49.529,46.015,126.966,43.167,172.981-6.362c33.889-36.477,41.277-88.108,23.018-131.16L463.294,85.222z"/>
	<path d="M720.289,210.648c26.778,58.757,14.787,130.469-34.823,177.201c-62.351,58.734-160.509,55.802-219.243-6.549
		c-58.725-62.342-55.793-160.5,6.557-219.234c48.211-45.415,117.853-53.961,174.104-26.651l-25.981,24.474
		c-42.049-15.236-90.939-6.785-125.71,25.969c-49.21,46.356-51.515,123.819-5.168,173.021c46.356,49.21,123.81,51.524,173.021,5.168
		c36.243-34.14,47.051-85.165,31.699-129.336L720.289,210.648z"/>
	<path d="M209.736,504.284c-28.229-58.074-18.021-130.061,30.413-178.011c60.873-60.264,159.074-59.77,219.338,1.103
		c60.255,60.864,59.761,159.065-1.112,219.329c-47.069,46.598-116.477,56.87-173.388,30.965l25.365-25.111
		c42.414,14.187,91.079,4.525,125.027-29.083c48.044-47.563,48.425-125.06,0.871-173.096
		c-47.563-48.044-125.051-48.434-173.096-0.871c-35.384,35.03-44.922,86.306-28.478,130.083L209.736,504.284z"/>
</g>
</svg>
