<?xml version="1.0" encoding="utf-8"?>
<!-- Generator: Adobe Illustrator 22.0.1, SVG Export Plug-In . SVG Version: 6.00 Build 0)  -->
<svg version="1.1" id="Layer_1" xmlns="http://www.w3.org/2000/svg" xmlns:xlink="http://www.w3.org/1999/xlink" x="0px" y="0px"
	 viewBox="0 0 2500 725" style="enable-background:new 0 0 2500 725;" xml:space="preserve">
<style type="text/css">
	.st0{fill:#88221A;}
	.st1{fill:#C63827;}
	.st2{fill:url(#SVGID_1_);}
	.st3{fill:url(#SVGID_2_);}
	.st4{clip-path:url(#SVGID_4_);}
	.st5{fill:url(#SVGID_5_);}
	.st6{fill:#D83C27;}
	.st7{fill:#E1473B;}
	.st8{fill:#C43827;}
	.st9{fill:#E4574E;}
	.st10{opacity:0.3;fill:#FFFFFF;enable-background:new    ;}
	.st11{fill:#6F6E6F;}
</style>
<g>
	<path class="st0" d="M1135.524,303.607l-35.942,8.785c-1.672,0.414-3.041,4.559-3.047,9.261l-0.01,10.214l-4.133,1.012
		l4.045,11.244l0.105,77.254l36.022-8.857c1.68-0.418,3.047-4.563,3.052-9.293l0.003-11.842l3.962-0.976l-3.946-10.97l-0.109-75.834
		H1135.524z M1071.985,231.19l76.188-18.621c1.68-0.4,3.198,1.223,4.247,4.181l2.423,6.726l9.69,26.92
		c0.965,2.679,1.55,6.42,1.55,10.713l-0.059,53.782l-4.098,0.998l3.999,11.14l0.115,81.557l-3.953,0.98l3.951,10.97l-0.037,55.423
		c-0.011,8.978-2.614,16.926-5.832,17.727l-76.186,18.761c-1.681,0.414-3.199-1.232-4.258-4.181l-12.105-33.65
		c-0.961-2.675-1.544-6.438-1.539-10.695l0.037-55.423l3.96-0.98l-3.953-10.979l-0.115-81.539l4.148-1.025l-4.055-11.271
		l0.054-53.778c0-9.023,2.614-16.949,5.825-17.736H1071.985z"/>
	<path class="st1" d="M1096.543,421.377l36.022-8.861l12.107,33.655l-45.114,11.104c-1.676,0.423-3.028-3.062-3.028-7.787
		l0.013-11.851l-3.951-10.969l3.957-0.976L1096.543,421.377L1096.543,421.377z"/>
	<g transform="translate(-543.432 -897.23) scale(1.37041)">
		
			<linearGradient id="SVGID_1_" gradientUnits="userSpaceOnUse" x1="1486.496" y1="928.9859" x2="1487.6342" y2="927.8477" gradientTransform="matrix(20.404 0 0 20.404 -29108.0762 -17984.1035)">
			<stop  offset="0" style="stop-color:#C63827"/>
			<stop  offset="1" style="stop-color:#88221A"/>
		</linearGradient>
		<path class="st2" d="M1231.822,980.286l-8.834-24.56c1.225-0.301,2.223-3.327,2.227-6.779l8.834,24.569
			C1234.043,976.959,1233.042,979.98,1231.822,980.286z"/>
	</g>
	<g transform="translate(-543.432 -897.23) scale(1.37041)">
		
			<linearGradient id="SVGID_2_" gradientUnits="userSpaceOnUse" x1="1484.0631" y1="923.0754" x2="1485.5781" y2="921.5605" gradientTransform="matrix(20.404 0 0 20.404 -29108.0762 -17984.0918)">
			<stop  offset="0" style="stop-color:#88221A"/>
			<stop  offset="1" style="stop-color:#C43827"/>
		</linearGradient>
		<path class="st3" d="M1183.363,860.907l-8.834-24.56c0.003-6.577,1.908-12.363,4.253-12.934l8.833,24.56
			C1185.275,848.557,1183.368,854.334,1183.363,860.907z"/>
	</g>
	<g transform="translate(-543.432 -897.23) scale(1.37041)">
		<g>
			<defs>
				<path id="SVGID_3_" d="M1183.363,860.907l-8.834-24.56c0.003-6.577,1.908-12.363,4.253-12.934l8.833,24.56
					C1185.275,848.557,1183.368,854.334,1183.363,860.907z"/>
			</defs>
			<clipPath id="SVGID_4_">
				<use xlink:href="#SVGID_3_"  style="overflow:visible;"/>
			</clipPath>
			<g class="st4">
				
					<linearGradient id="SVGID_5_" gradientUnits="userSpaceOnUse" x1="1484.8992" y1="923.0663" x2="1488.8066" y2="919.1589" gradientTransform="matrix(20.404 0 0 20.404 -29108.0762 -17984.0918)">
					<stop  offset="0" style="stop-color:#88221A"/>
					<stop  offset="1" style="stop-color:#C43827"/>
				</linearGradient>
				<path class="st5" d="M1234.376,809.831l8.831,24.547l-55.592,13.6l-8.834-24.56L1234.376,809.831z"/>
			</g>
		</g>
	</g>
	<path class="st6" d="M1166.038,420.522l-0.037,55.432c-0.011,8.978-2.612,16.922-5.833,17.722l-76.181,18.761
		c-3.207,0.796-5.809-5.88-5.8-14.863l0.037-55.419l18.321-4.518l-0.013,11.851c0,4.72,1.352,8.209,3.028,7.787l45.113-11.104
		c1.675-0.414,3.046-4.55,3.05-9.279l0.01-11.851l18.307-4.518L1166.038,420.522z"/>
	<path class="st7" d="M1147.738,413.082l-0.117-81.548l18.305-4.509l0.115,81.552L1147.738,413.082z"/>
	<path class="st8" d="M1152.421,216.75l2.425,6.726l9.688,26.925c-1.056-2.958-2.575-4.577-4.26-4.181l-76.181,18.63l-12.107-33.659
		l76.186-18.617C1149.851,212.169,1151.37,213.796,1152.421,216.75z"/>
	<path class="st7" d="M1078.23,430.188l-0.112-81.543l18.32-4.523l0.112,81.566L1078.23,430.188z"/>
	<path class="st9" d="M1084.089,264.854l76.183-18.63c3.215-0.76,5.813,5.885,5.808,14.899l-0.059,53.778l-18.307,4.491
		l0.003-10.228c0.003-4.725-1.356-8.196-3.026-7.778l-45.115,11.014c-1.67,0.418-3.039,4.563-3.046,9.252l-0.01,10.219
		l-18.312,4.496l0.05-53.782C1078.27,273.571,1080.882,265.65,1084.089,264.854L1084.089,264.854z"/>
	<path class="st10" d="M1147.728,425.041l-0.008,11.851c-0.005,4.729-1.379,8.861-3.052,9.279l-45.112,11.104
		c-1.508,0.382-2.754-2.41-2.985-6.397c0.219,3.462,1.299,5.844,2.617,5.516l45.449-11.172c1.499-0.373,2.735-4.105,2.74-8.331
		l0.011-11.851v-0.958L1147.728,425.041z"/>
	<path class="st10" d="M1096.188,449.488l0.011-11.765l0.341-0.085l-0.013,11.851c0,4.72,1.353,8.209,3.03,7.787l45.112-11.104
		c1.675-0.414,3.047-4.55,3.052-9.279l0.008-11.851l0.347-0.09l-0.016,11.941c-0.005,5.233-1.512,9.787-3.362,10.237l-45.107,11.104
		C1097.715,458.709,1096.185,454.784,1096.188,449.488L1096.188,449.488z"/>
	<path class="st11" d="M1217.156,354.903c0-15.047-0.235-23.782-0.312-30.706h5.325l0.315,12.624h0.154
		c2.123-10.385,5.098-14.045,8.078-14.045c6.657,0,10.967,18.104,10.967,50.451c0,36.604-5.795,51.062-11.75,51.062
		c-3.605,0-5.643-5.907-6.659-11.397h-0.165v48.823h-5.952L1217.156,354.903L1217.156,354.903z M1223.107,386.647
		c0,2.846,0.083,5.692,0.315,8.137c1.174,14.031,3.919,16.49,5.565,16.49c5.015,0,6.659-17.911,6.659-37.651
		c0-20.334-1.881-37.427-6.74-37.427c-2.74,0-5.246,8.767-5.558,17.704c-0.165,2.481-0.245,5.001-0.24,7.526V386.647
		L1223.107,386.647z M1252.433,374.855c0,30.31,4.618,36.608,8.925,36.608c2.668,0,4.781-1.636,6.27-3.664l1.021,11.397
		c-2.113,2.85-5.323,4.685-8.383,4.685c-9.089,0-13.79-19.327-13.79-49.43c0-31.735,5.251-51.678,12.852-51.678
		c7.675,0,10.813,21.166,10.813,43.136c0,3.866-0.08,6.505-0.16,8.951h-17.549V374.855z M1264.341,363.265
		c0.08-19.543-2.742-28.278-5.64-28.278c-3.999,0-5.958,14.845-6.193,28.278H1264.341z M1276.051,349.616
		c0-11.594-0.234-17.488-0.32-25.419h5.251l0.317,11.995h0.157c1.641-7.926,4.703-13.424,8.698-13.424
		c5.245,0,9.165,9.971,9.165,33.772v66.114h-6.032v-63.273c0-11.792-0.859-23.396-5.253-23.396c-2.506,0-4.936,5.498-5.637,15.87
		c-0.235,2.437-0.317,5.498-0.317,8.937v61.852h-6.03V349.616L1276.051,349.616z"/>
	<path class="st8" d="M1304.992,406.374c1.324,2.248,3.674,5.094,6.109,5.094c3.369,0,5.562-5.494,5.562-14.238
		c0-7.539-1.021-12.619-4.859-19.332c-4.93-8.137-7.599-16.688-7.599-27.873c0-16.068,4.543-27.257,10.421-27.257
		c2.981,0,5.167,2.643,6.742,5.085l-1.572,11.806c-1.488-2.652-3.055-4.487-5.091-4.487c-3.215,0-4.858,6.105-4.858,12.606
		c0,6.523,0.937,10.178,4.703,16.904c4.386,7.319,7.834,16.274,7.834,29.896c0,19.741-5.171,29.303-11.44,29.303
		c-2.751,0-5.8-2.243-7.444-5.701L1304.992,406.374z M1334.535,301.206v22.982h7.289v11.801h-7.289v58.583
		c0,12.822,1.728,16.283,3.922,16.283c1.017,0,1.801-0.207,2.428-0.62l0.318,12.004c-1.104,1.021-2.511,1.632-4.472,1.632
		c-2.431,0-4.543-1.632-5.953-5.903c-1.569-4.478-2.273-11.185-2.273-24.812V335.99h-4.62v-11.797h4.62v-16.679L1334.535,301.206z
		 M1366.245,400.274c0,7.53,0.075,16.072,0.393,22.389h-5.403l-0.397-10.385h-0.229c-1.654,7.535-4.316,12.008-7.614,12.008
		c-5.013,0-8.927-10.987-8.927-28.076c0-24.83,7.603-35.606,16.136-35.817v-3.039c0-13.217-1.328-22.186-6.03-22.186
		c-2.221-0.047-4.399,1.719-6.27,5.085l-1.331-10.979c1.646-3.057,5.098-6.51,8.85-6.51c7.612,0,10.819,12.817,10.819,34.783v42.727
		L1366.245,400.274z M1360.365,371.6c-3.13,0-10.416,1.623-10.416,22.973c0,13.02,2.511,17.502,4.621,17.502
		c2.665,0,4.861-5.08,5.562-14.845c0.16-1.83,0.234-3.866,0.234-5.705V371.6L1360.365,371.6z M1391.583,420.217
		c-1.332,2.032-3.609,3.664-6.267,3.664c-8.31,0-13.87-17.299-13.87-49.844c0-28.269,5.485-51.26,14.972-51.26
		c2.03,0,4.223,1.421,5.317,3.044l-1.169,12.822c-1.354-1.73-2.822-2.631-4.309-2.643c-6.112,0-8.778,18.725-8.778,38.043
		c0,22.982,3.365,36.824,8.941,36.824c1.558,0,2.967-0.809,4.3-2.648l0.864,12.004V420.217z"/>
	<path class="st11" d="M1212.569,373.416c0,38.052-6.739,50.869-12.616,50.869c-6.822,0-12.304-16.072-12.304-50.667
		c0-35.808,6.19-50.86,12.697-50.86c6.814,0.009,12.221,16.486,12.221,50.658H1212.569z M1193.678,373.416
		c0,16.283,1.1,38.456,6.585,38.456c5.17,0,6.27-22.987,6.27-38.456c0-15.047-1.099-38.245-6.43-38.245
		C1194.702,335.176,1193.678,358.374,1193.678,373.416z"/>
	<path class="st8" d="M1401.313,369.973h0.157c0.702-3.866,1.332-7.746,2.036-10.996l7.518-34.783h6.507l-10.024,41.5l10.973,56.961
		h-6.747l-8.228-46.378l-2.191,9.153v37.224h-5.96V281.875h5.96v88.107L1401.313,369.973z M1423.836,322.134v14.242h-0.976v-14.242
		h-2.427v-1.933h5.826v1.933H1423.836z M1427.123,320.201h1.392l2.06,13.68l2.055-13.68h1.38v16.176h-0.928v-9.544
		c0-0.333,0-0.881,0.013-1.636c0.008-0.764,0.008-1.587,0.008-2.446l-2.041,13.631h-0.969l-2.071-13.631v0.495
		c0,0.382,0.005,0.989,0.016,1.798c0.01,0.823,0.016,1.407,0.016,1.785v9.549h-0.928l-0.003-16.171L1427.123,320.201z"/>
</g>
</svg>
