<?xml version="1.0" encoding="UTF-8"?>
<!DOCTYPE svg PUBLIC "-//W3C//DTD SVG 1.1//EN" "http://www.w3.org/Graphics/SVG/1.1/DTD/svg11.dtd">
<!-- Creator: CorelDRAW X6 -->
<svg xmlns="http://www.w3.org/2000/svg" xml:space="preserve" width="10.8333in" height="4.06944in" version="1.1" style="shape-rendering:geometricPrecision; text-rendering:geometricPrecision; image-rendering:optimizeQuality; fill-rule:evenodd; clip-rule:evenodd"
viewBox="0 0 10833 4069"
 xmlns:xlink="http://www.w3.org/1999/xlink">
 <defs>
  <style type="text/css">
   <![CDATA[
    .fil1 {fill:#282828;fill-rule:nonzero}
    .fil0 {fill:#353333;fill-rule:nonzero}
    .fil2 {fill:#F5AA32;fill-rule:nonzero}
   ]]>
  </style>
 </defs>
 <g id="Layer_x0020_1">
  <metadata id="CorelCorpID_0Corel-Layer"/>
  <path class="fil0" d="M6546 2173l0 49c0,89 3,164 -41,244 -35,65 -91,104 -154,104 -85,0 -136,-69 -136,-168 0,-195 169,-229 331,-229zm-2924 0l0 49c0,89 3,164 -41,244 -35,65 -91,104 -154,104 -85,0 -136,-69 -136,-168 0,-195 169,-229 331,-229zm4957 -429c71,0 123,32 148,113 29,94 32,211 32,310 0,151 -7,400 -180,400 -175,0 -174,-309 -174,-452 0,-143 10,-371 174,-371zm-1407 -220c-23,0 -41,18 -41,44l0 168c0,25 17,43 41,44l383 0 -438 647c-27,42 -29,89 -29,116l0 171c0,25 27,51 52,38 250,-136 549,-124 774,-3 27,15 55,-13 55,-38l0 -180c-2,-24 -12,-47 -41,-64 -128,-74 -277,-96 -418,-93l380 -557c35,-50 55,-80 55,-104l0 -145c0,-25 -17,-44 -41,-44l-734 0zm2680 -20c-154,0 -242,77 -305,238l-3 0 0 -180c-4,-18 -21,-31 -41,-32l-206 0c-22,0 -42,16 -44,38l0 1175c0,22 18,42 41,44l220 0c24,0 43,-20 44,-44l0 -632c0,-79 7,-152 38,-223 25,-57 73,-93 128,-93 154,0 139,188 139,316l0 638c2,20 20,36 41,38l223 0c22,0 41,-17 44,-38l0 -740c0,-114 0,-272 -58,-365 -62,-101 -161,-139 -261,-139l0 0zm-1273 0c-323,0 -502,284 -502,650 0,363 177,656 502,656 312,0 511,-285 511,-644 0,-371 -179,-661 -511,-661zm-3797 0c-137,0 -239,69 -293,218l-3 0 0 -154c-1,-21 -19,-39 -41,-41l-209 0c-24,0 -44,20 -44,44l0 1175c2,21 19,39 41,41l223 0c24,0 43,-20 44,-44l0 -624c0,-136 -7,-322 154,-322 158,0 136,191 136,322l0 624c0,22 18,42 41,44l223 0c24,0 44,-20 44,-44l0 -624c0,-67 -3,-164 20,-223 23,-59 79,-99 133,-99 65,0 114,23 131,102 10,47 6,171 6,220l0 624c0,22 18,42 41,44l223 0c24,0 44,-20 44,-44l0 -743c0,-126 13,-269 -58,-368 -62,-89 -165,-128 -258,-128 -131,0 -253,69 -307,218 -62,-148 -151,-218 -290,-218zm1645 -12c-212,0 -449,82 -499,351 -5,29 14,42 32,46l218 26c20,-1 34,-23 38,-44 19,-93 95,-136 180,-136 46,0 98,16 125,58 31,47 26,111 26,165l0 32c-129,15 -297,24 -418,78 -140,62 -238,188 -238,374 0,238 146,357 334,357 158,0 246,-37 368,-165 40,60 54,88 128,151 17,9 37,8 52,-6l0 3c45,-41 126,-115 171,-154 18,-15 14,-40 0,-61 -41,-58 -84,-104 -84,-212l0 -357c0,-151 10,-290 -99,-394 -86,-84 -225,-113 -334,-113zm-2924 0c-212,0 -449,82 -499,351 -5,29 14,42 32,46l218 26c20,-1 34,-23 38,-44 19,-93 95,-136 180,-136 46,0 98,16 125,58 31,47 29,111 29,165l0 32c-129,15 -300,24 -421,78 -140,62 -238,188 -238,374 0,238 146,357 334,357 159,0 246,-37 368,-165 41,60 54,88 128,151 17,9 37,8 52,-6l0 3c45,-41 126,-115 171,-154 18,-15 14,-40 0,-61 -41,-58 -84,-104 -84,-212l0 -357c0,-151 13,-290 -96,-394 -85,-84 -228,-113 -336,-113z"/>
  <path class="fil1" d="M4995 3283c50,0 93,28 128,81 35,53 49,136 49,249 0,111 -16,194 -52,249 -36,56 -78,84 -125,84 -34,0 -65,-11 -93,-35 -28,-23 -49,-57 -64,-102 -15,-45 -23,-113 -23,-203 0,-106 19,-185 55,-241 36,-56 79,-84 125,-84zm5850 238l0 -331 -61 0 -78 232c-8,23 -14,40 -17,52l-17 -49 -78 -235 -64 0 0 331 41 0 0 -281 96 281 41 0 96 -276 0 276 43 0zm-6570 -238c56,0 100,27 136,81 25,37 41,93 46,168l-368 0c4,-76 22,-138 58,-183 35,-45 77,-67 128,-67zm4922 -32c56,0 103,27 139,81 25,37 41,93 46,168l-374 0c4,-76 25,-135 61,-180 36,-45 77,-70 128,-70zm-2721 0c56,0 103,27 139,81 25,37 41,93 46,168l-374 0c4,-76 25,-135 61,-180 36,-45 77,-70 128,-70zm3745 -61l0 41 110 0 0 290 44 0 0 -290 110 0 0 -41 -264 0zm-7219 -9l203 867 119 0 133 -667 23 148 107 519 116 0 206 -867 -107 0 -113 502 -38 168 -35 -168 -99 -502 -116 0 -104 508 -35 180 -41 -186 -104 -502 -116 0zm1273 -20c-90,0 -162,40 -220,119 -59,79 -90,193 -90,342 0,144 29,254 87,331 58,76 135,116 229,116 74,0 135,-25 186,-73 50,-47 85,-116 104,-209l-113 -17c-33,119 -93,177 -177,177 -54,0 -99,-23 -136,-73 -37,-50 -59,-123 -64,-220l493 0 3 -41c0,-146 -30,-259 -87,-336 -57,-77 -129,-116 -215,-116zm3718 -12l0 867 113 0 0 -867 -113 0zm-711 0l252 867 107 0 252 -867 -116 0 -148 531c-18,64 -34,120 -43,165 -12,-58 -24,-118 -41,-177l-145 -519 -119 0zm2587 -17c-79,0 -141,23 -186,70 -45,46 -67,106 -67,180 0,43 7,79 23,113 16,34 40,61 70,81 30,20 89,47 177,75 61,20 100,36 116,49 23,19 35,44 35,78 0,40 -14,73 -41,99 -27,26 -64,38 -113,38 -49,0 -89,-14 -119,-44 -30,-30 -49,-75 -55,-136l-113 23c26,186 118,279 278,278 85,0 154,-24 203,-75 49,-51 75,-120 75,-203 0,-45 -8,-84 -23,-116 -15,-32 -39,-57 -67,-75 -27,-19 -86,-44 -180,-75 -68,-24 -111,-41 -125,-52 -23,-18 -35,-43 -35,-75 0,-33 14,-60 38,-81 24,-21 61,-32 110,-32 86,0 135,48 145,142l110 -17c-8,-60 -21,-107 -41,-139 -20,-32 -50,-59 -87,-78 -38,-19 -81,-26 -131,-26zm-670 0c-91,0 -167,37 -226,116 -59,79 -87,193 -87,342 0,144 28,257 87,334 59,76 135,113 229,113 75,0 138,-23 189,-70 51,-47 88,-116 107,-209l-116 -20c-33,119 -92,177 -177,177 -54,0 -101,-23 -139,-73 -38,-50 -59,-123 -64,-220l499 0 0 -41c0,-146 -29,-256 -87,-334 -58,-77 -128,-116 -215,-116zm-647 0c-90,0 -163,38 -220,113 -57,75 -87,189 -87,339 0,150 30,263 87,339 57,76 127,113 215,113 72,0 134,-27 186,-81 51,-54 83,-135 96,-238l-110 -17c-8,74 -27,127 -58,162 -31,35 -67,52 -110,52 -55,0 -101,-26 -136,-78 -35,-53 -52,-137 -52,-255 0,-114 19,-197 55,-249 37,-53 83,-81 139,-81 37,0 69,15 96,44 27,29 44,75 55,133l110 -23c-13,-91 -43,-160 -90,-206 -47,-46 -105,-67 -174,-67zm-1386 0c-27,0 -51,9 -73,29 -22,20 -46,61 -73,122l0 -133 -102 0 0 867 113 0 0 -452c0,-63 6,-124 20,-180 8,-32 24,-57 43,-75 20,-18 43,-26 67,-26 27,0 53,11 81,32l38 -136c-39,-32 -78,-46 -116,-46zm-687 0c-91,0 -167,37 -226,116 -59,79 -87,193 -87,342 0,144 28,257 87,334 59,76 135,113 229,113 75,0 138,-23 189,-70 51,-47 88,-116 107,-209l-116 -20c-33,119 -95,177 -180,177 -54,0 -98,-23 -136,-73 -38,-50 -59,-123 -64,-220l499 0 0 -41c0,-146 -29,-256 -87,-334 -58,-77 -128,-116 -215,-116zm-693 0c-79,0 -141,23 -186,70 -44,46 -67,106 -67,180 0,43 10,79 26,113 16,34 40,61 70,81 30,20 89,47 177,75 61,20 97,36 113,49 23,19 35,44 35,78 0,40 -14,73 -41,99 -27,26 -64,38 -113,38 -49,0 -89,-14 -119,-44 -30,-30 -46,-75 -52,-136l-113 23c26,186 118,279 278,278 85,0 151,-24 200,-75 49,-51 75,-120 75,-203 0,-45 -8,-84 -23,-116 -15,-32 -36,-57 -64,-75 -28,-19 -89,-44 -183,-75 -68,-24 -108,-41 -122,-52 -23,-18 -35,-43 -35,-75 0,-33 11,-60 35,-81 24,-21 61,-32 110,-32 86,0 135,48 145,142l110 -17c-8,-60 -21,-107 -41,-139 -20,-32 -50,-59 -87,-78 -38,-19 -81,-26 -131,-26zm-1073 -281l0 1198 104 0 0 -107c22,42 48,74 78,96 31,21 66,32 104,32 77,0 143,-39 200,-119 57,-80 87,-195 87,-342 0,-96 -12,-176 -38,-244 -25,-67 -59,-118 -102,-151 -42,-33 -90,-52 -142,-52 -37,0 -71,10 -102,29 -30,19 -55,51 -78,90l0 -429 -113 0zm3281 -29l0 168 113 0 0 -168 -113 0z"/>
  <path class="fil2" d="M2026 2596l-571 218 0 818 571 -232 0 -803zm-1299 0l-15 835 632 278 0 -867 -618 -247zm650 -232l-432 186 400 171 464 -171 -432 -186z"/>
  <path class="fil2" d="M3311 290l-511 218 0 821 511 -232 0 -806zm-1207 -46l0 835 539 157 17 -760 -557 -232zm603 -247l-435 186 403 171 464 -171 -432 -186z"/>
  <path class="fil2" d="M1314 1405l-571 218 0 818 571 -232 0 -803zm-1299 0l-15 835 632 278 0 -867 -618 -247zm650 -232l-432 186 400 171 464 -171 -432 -186z"/>
  <path class="fil2" d="M2706 1374l-571 218 0 818 571 -232 0 -803zm-1299 0l-15 835 632 278 0 -867 -618 -247zm650 -232l-432 186 400 171 464 -171 -432 -186z"/>
  <path class="fil2" d="M4717 229l-571 218 0 818 571 -232 0 -803zm-1299 0l-14 835 632 278 0 -867 -618 -247zm650 -232l-432 186 400 171 464 -171 -432 -186z"/>
 </g>
</svg>
