<?xml version="1.0" encoding="utf-8"?>
<!-- Generator: Adobe Illustrator 22.0.1, SVG Export Plug-In . SVG Version: 6.00 Build 0)  -->
<svg version="1.1" id="Layer_1" xmlns="http://www.w3.org/2000/svg" xmlns:xlink="http://www.w3.org/1999/xlink" x="0px" y="0px"
	 viewBox="0 0 841.89 595.276" style="enable-background:new 0 0 841.89 595.276;" xml:space="preserve">
<g>
	<path d="M462.622,155.776c19.038,35.331,14.569,80.3-14.264,111.335c-36.237,39.005-97.233,41.248-136.238,5.011
		c-38.999-36.232-41.243-97.228-5.005-136.233c28.02-30.16,70.856-38.341,106.87-23.732l-15.1,16.253
		c-26.708-7.709-56.678-0.445-76.887,21.307c-28.6,30.785-26.824,78.92,3.954,107.515c30.785,28.6,78.915,26.83,107.515-3.954
		c21.064-22.672,25.655-54.763,14.307-81.521L462.622,155.776z"/>
	<path d="M622.356,233.734c16.644,36.52,9.19,81.092-21.644,110.138c-38.754,36.506-99.764,34.683-136.269-4.07
		c-36.5-38.748-34.678-99.758,4.076-136.264c29.966-28.227,73.251-33.539,108.213-16.565l-16.148,15.212
		c-26.135-9.47-56.523-4.217-78.135,16.141c-30.586,28.812-32.019,76.959-3.212,107.54c28.812,30.586,76.954,32.024,107.54,3.212
		c22.526-21.22,29.244-52.934,19.702-80.388L622.356,233.734z"/>
	<path d="M305.025,416.242c-17.545-36.096-11.201-80.839,18.903-110.642c37.835-37.457,98.872-37.15,136.328,0.686
		c37.451,37.83,37.144,98.866-0.691,136.323c-29.256,28.963-72.396,35.347-107.769,19.246l15.766-15.608
		c26.362,8.818,56.61,2.813,77.71-18.076c29.862-29.563,30.098-77.731,0.541-107.587c-29.563-29.862-77.725-30.104-107.587-0.541
		c-21.993,21.772-27.921,53.643-17.7,80.853L305.025,416.242z"/>
</g>
</svg>
