<?xml version="1.0" encoding="utf-8"?>
<!-- Generator: Adobe Illustrator 22.0.1, SVG Export Plug-In . SVG Version: 6.00 Build 0)  -->
<svg version="1.1" id="Layer_1" xmlns="http://www.w3.org/2000/svg" xmlns:xlink="http://www.w3.org/1999/xlink" x="0px" y="0px"
	 viewBox="0 0 841.9 595.3" style="enable-background:new 0 0 841.9 595.3;" xml:space="preserve">
<style type="text/css">
	.st0{fill:#FFFFFF;}
</style>
<path class="st0" d="M363,105.3c27.2,48.9,21.1,111.8-19.3,154.7c-50,53.2-133.7,55.8-186.9,5.7S101,132.1,151.1,79
	c38.9-41.4,98.2-52.1,147.7-31.3l-22.9,24.4c-35.5-10.3-75.3-0.8-102.4,27.9c-38.4,40.8-36.4,105.1,4.4,143.5
	c40.8,38.4,105.1,36.4,143.5-4.4c28.6-30.4,34.8-73.8,19.2-109.8L363,105.3z"/>
<path class="st0" d="M582.9,165.5c30.9,46.7,29.6,109.8-7.4,155.8c-45.8,56.9-129,65.8-185.9,20s-65.8-129-20-185.9
	c35.6-44.2,93.9-59.5,144.8-42.5l-21,26.1c-36.2-7.6-75.2,4.9-99.9,35.7c-35.2,43.7-28.3,107.5,15.4,142.7
	c43.7,35.2,107.5,28.3,142.7-15.4c26.2-32.5,29-76.3,10.7-111L582.9,165.5z"/>
<path class="st0" d="M192.9,472.2c-29.4-47.7-26.1-110.7,12.3-155.4c47.6-55.4,131-61.7,186.4-14.1s61.7,131,14.1,186.4
	c-37,43.1-95.8,56.5-146.1,37.9l21.8-25.4c35.9,8.7,75.3-2.5,101-32.5c36.5-42.5,31.7-106.6-10.9-143.1s-106.6-31.7-143.1,10.9
	c-27.2,31.7-31.4,75.3-14.3,110.6L192.9,472.2z"/>
</svg>
